<?xml version="1.0" encoding="UTF-8" standalone="no"?>
<svg
   xmlns:dc="http://purl.org/dc/elements/1.1/"
   xmlns:cc="http://creativecommons.org/ns#"
   xmlns:rdf="http://www.w3.org/1999/02/22-rdf-syntax-ns#"
   xmlns:svg="http://www.w3.org/2000/svg"
   xmlns="http://www.w3.org/2000/svg"
   xmlns:sodipodi="http://sodipodi.sourceforge.net/DTD/sodipodi-0.dtd"
   xmlns:inkscape="http://www.inkscape.org/namespaces/inkscape"
   id="Layer_1"
   version="1.1"
   viewBox="0 0 20 13"
   xml:space="preserve"
   sodipodi:docname="direccion.svg"
   width="20"
   height="13"
   inkscape:version="0.92.1 r15371"><metadata
     id="metadata5455"><rdf:RDF><cc:Work
         rdf:about=""><dc:format>image/svg+xml</dc:format><dc:type
           rdf:resource="http://purl.org/dc/dcmitype/StillImage" /><dc:title></dc:title></cc:Work></rdf:RDF></metadata><defs
     id="defs5453" /><sodipodi:namedview
     pagecolor="#ffffff"
     bordercolor="#666666"
     borderopacity="1"
     objecttolerance="10"
     gridtolerance="10"
     guidetolerance="10"
     inkscape:pageopacity="0"
     inkscape:pageshadow="2"
     inkscape:window-width="1280"
     inkscape:window-height="740"
     id="namedview5451"
     showgrid="false"
     inkscape:zoom="20.769"
     inkscape:cx="9.8517"
     inkscape:cy="5.7204"
     inkscape:window-x="0"
     inkscape:window-y="31"
     inkscape:window-maximized="1"
     inkscape:current-layer="Layer_1" /><style
     type="text/css"
     id="style5438">
	.st0{fill:#EC008C;}
	.st1{fill:#FFFFFF;}
	.st2{fill:#00AAAD;}
	.st3{fill:#F9A01B;}
	.st4{fill:#B2D235;}
</style><g
     transform="matrix(0.37143,0,0,0.37143,-0.35431,-7.3544)"
     id="g5448"
     style="fill:#800000"><g
       id="g5442"
       style="fill:#800000" /><g
       id="g5446"
       style="fill:#800000"><path
         inkscape:connector-curvature="0"
         class="st1"
         d="M 48.2,44.3 C 49,44.3 49.7,43.7 50.3,42.4 50.9,41.1 51.2,39.6 51.2,37.6 51.2,33.5 50,30 47.6,27.3 45.2,24.6 42,23.2 38,23.2 34,23.2 30.6,24.6 27.9,27.5 25.2,30.4 23.8,33.8 23.8,37.7 23.8,41.6 25.1,45 27.7,47.6 30.3,50.2 33.4,51.6 37.2,51.6 40.2,51.6 42.8,50.5 45,48.3 L 46.8,51.4 C 45.6,52.4 44.1,53.3 42.3,53.9 40.5,54.5 38.8,54.8 37.1,54.8 32.2,54.8 28.1,53.2 24.8,49.9 21.5,46.6 19.8,42.5 19.8,37.6 19.8,32.7 21.5,28.5 25,25 28.5,21.5 32.7,19.8 37.6,19.8 42.5,19.8 46.6,21.5 49.9,24.8 53.2,28.1 54.8,32.3 54.8,37.3 54.8,40.5 54.1,43.1 52.8,45.1 51.5,47.1 49.7,48 47.5,48 46.4,48 45.4,47.7 44.4,47 43.5,46.3 42.8,45.5 42.5,44.4 40.9,46.5 38.8,47.5 36.4,47.5 33.9,47.5 31.8,46.6 29.9,44.7 28.1,42.8 27.1,40.4 27.1,37.5 27.1,34.6 27.9,32.2 29.6,30.2 31.3,28.2 33.4,27.2 36.1,27.2 37,27.2 37.9,27.4 38.7,27.8 39.5,28.2 40.1,28.6 40.5,29 L 41.1,29.6 V 27.8 H 46.6 V 41.8 C 46.9,43.6 47.3,44.3 48.2,44.3 Z M 41.4,37.7 C 41.4,36.2 41,35 40.2,34 39.4,33 38.4,32.5 37.1,32.5 35.8,32.5 34.8,33 34.1,34 33.4,35 33,36.2 33,37.6 33,39 33.4,40.3 34.1,41.3 34.8,42.4 35.9,42.9 37.2,42.9 38.5,42.9 39.5,42.4 40.3,41.4 41,40.4 41.4,39.1 41.4,37.7 Z"
         id="path5444"
         style="fill:#800000" /></g></g></svg>