<?xml version="1.0" encoding="UTF-8" standalone="no"?>
<svg
   xmlns:dc="http://purl.org/dc/elements/1.1/"
   xmlns:cc="http://creativecommons.org/ns#"
   xmlns:rdf="http://www.w3.org/1999/02/22-rdf-syntax-ns#"
   xmlns:svg="http://www.w3.org/2000/svg"
   xmlns="http://www.w3.org/2000/svg"
   xmlns:sodipodi="http://sodipodi.sourceforge.net/DTD/sodipodi-0.dtd"
   xmlns:inkscape="http://www.inkscape.org/namespaces/inkscape"
   id="Layer_1"
   version="1.1"
   viewBox="0 0 20 13"
   xml:space="preserve"
   sodipodi:docname="correo.svg"
   width="20"
   height="13"
   inkscape:version="0.92.1 r15371"><metadata
     id="metadata5436"><rdf:RDF><cc:Work
         rdf:about=""><dc:format>image/svg+xml</dc:format><dc:type
           rdf:resource="http://purl.org/dc/dcmitype/StillImage" /><dc:title></dc:title></cc:Work></rdf:RDF></metadata><defs
     id="defs5434"><style
       id="style6694"
       type="text/css"><![CDATA[
    .fil1 {fill:none}
    .fil0 {fill:#5EA9DD;fill-rule:nonzero}
   ]]></style></defs><sodipodi:namedview
     pagecolor="#ffffff"
     bordercolor="#666666"
     borderopacity="1"
     objecttolerance="10"
     gridtolerance="10"
     guidetolerance="10"
     inkscape:pageopacity="0"
     inkscape:pageshadow="2"
     inkscape:window-width="1280"
     inkscape:window-height="740"
     id="namedview5432"
     showgrid="false"
     fit-margin-top="0"
     fit-margin-left="0"
     fit-margin-right="0"
     fit-margin-bottom="0"
     inkscape:zoom="6.4701"
     inkscape:cx="7.1665"
     inkscape:cy="-14.295"
     inkscape:window-x="0"
     inkscape:window-y="31"
     inkscape:window-maximized="1"
     inkscape:current-layer="Layer_1" /><style
     type="text/css"
     id="style5421">
	.st0{fill:#EC008C;}
	.st1{fill:#FFFFFF;}
	.st2{fill:#00AAAD;}
	.st3{fill:#F9A01B;}
	.st4{fill:#B2D235;}
</style><g
     id="g5429"
     style="fill:#ff6600"
     transform="matrix(0.51429,0,0,0.53498,-8.2857,-13.589)"><g
       id="g5427"
       style="fill:#ff6600"><path
         class="st1"
         d="M 51,25.4 H 24 C 21.8,25.4 20,27.2 20,29.4 V 45.7 C 20,47.9 21.8,49.7 24,49.7 H 51 C 53.2,49.7 55,47.9 55,45.7 V 29.4 C 55,27.1 53.2,25.4 51,25.4 Z M 48.2,42 C 49.7,43.7 51.3,45.5 52.7,47.3 50.9,45.8 49.1,44.3 47.4,42.8 45.9,41.5 44.4,40.1 42.9,38.7 42.6,39 42.3,39.4 42,39.7 41.8,39.9 41.6,40.1 41.4,40.4 41.2,40.6 41.1,40.7 40.9,40.9 L 38.2,43.6 37.5,44.3 36.8,43.6 34.1,40.9 C 34,40.8 33.9,40.7 33.8,40.6 L 33,39.7 C 32.7,39.4 32.4,39 32.1,38.7 30.6,40.1 29.1,41.5 27.6,42.8 25.9,44.3 24.1,45.9 22.3,47.3 23.8,45.5 25.3,43.7 26.8,42 28.2,40.5 29.5,39 30.9,37.5 30.4,36.9 29.8,36.4 29.3,35.8 26.9,33.2 24.5,30.5 22.2,27.6 25,29.8 27.7,32.2 30.4,34.7 31,35.2 31.5,35.7 32.1,36.2 V 36.2 L 32.3,36.4 C 33,37 33.7,37.7 34.3,38.3 L 35.2,39.2 C 35.3,39.3 35.4,39.4 35.5,39.5 L 37.5,41.5 39.5,39.5 C 39.7,39.3 39.8,39.2 40,39 40.2,38.8 40.4,38.6 40.7,38.3 41.2,37.9 41.6,37.4 42.1,37 42.2,36.9 42.2,36.9 42.3,36.8 L 43,36.2 V 36.2 C 43.6,35.7 44.1,35.2 44.7,34.7 47.3,32.3 50,29.9 52.9,27.6 50.7,30.4 48.3,33.1 45.8,35.8 45.3,36.4 44.7,36.9 44.2,37.5 45.5,39 46.9,40.5 48.2,42 Z"
         id="path5425"
         style="fill:#ff6600"
         inkscape:connector-curvature="0" /></g></g></svg>