<?xml version="1.0" encoding="UTF-8" standalone="no"?>
<svg
   xmlns:dc="http://purl.org/dc/elements/1.1/"
   xmlns:cc="http://creativecommons.org/ns#"
   xmlns:rdf="http://www.w3.org/1999/02/22-rdf-syntax-ns#"
   xmlns:svg="http://www.w3.org/2000/svg"
   xmlns="http://www.w3.org/2000/svg"
   xmlns:sodipodi="http://sodipodi.sourceforge.net/DTD/sodipodi-0.dtd"
   xmlns:inkscape="http://www.inkscape.org/namespaces/inkscape"
   id="Layer_1"
   version="1.1"
   viewBox="0 0 20 13"
   xml:space="preserve"
   sodipodi:docname="telefono.svg"
   width="20"
   height="13"
   inkscape:version="0.92.1 r15371"><metadata
     id="metadata5474"><rdf:RDF><cc:Work
         rdf:about=""><dc:format>image/svg+xml</dc:format><dc:type
           rdf:resource="http://purl.org/dc/dcmitype/StillImage" /><dc:title></dc:title></cc:Work></rdf:RDF></metadata><defs
     id="defs5472" /><sodipodi:namedview
     pagecolor="#ffffff"
     bordercolor="#666666"
     borderopacity="1"
     objecttolerance="10"
     gridtolerance="10"
     guidetolerance="10"
     inkscape:pageopacity="0"
     inkscape:pageshadow="2"
     inkscape:window-width="1280"
     inkscape:window-height="740"
     id="namedview5470"
     showgrid="false"
     inkscape:zoom="3.1467"
     inkscape:cx="26.347"
     inkscape:cy="37.5"
     inkscape:window-x="0"
     inkscape:window-y="31"
     inkscape:window-maximized="1"
     inkscape:current-layer="Layer_1" /><style
     type="text/css"
     id="style5457">
	.st0{fill:#EC008C;}
	.st1{fill:#FFFFFF;}
	.st2{fill:#00AAAD;}
	.st3{fill:#F9A01B;}
	.st4{fill:#B2D235;}
</style><path
     inkscape:connector-curvature="0"
     class="st1"
     d="M 14.797,2.9011 C 14.437,3.2621 14.437,3.854 14.797,4.216 L 15.887,5.3 C 16.347,5.76 15.887,6.944 14.897,7.93 13.917,8.916 12.727,9.376 12.267,8.916 L 11.187,7.831 C 10.827,7.469 10.227,7.469 9.8674,7.831 L 7.2775,10.427 C 6.9075,10.789 6.9075,11.381 7.2775,11.742 L 7.9675,12.432 C 9.4074,13.878 13.157,12.465 16.307,9.31 19.466,6.155 20.876,2.4081 19.436,0.96204 L 18.746,0.27204 C 18.386,-0.08996 17.786,-0.08996 17.426,0.27204 Z"
     id="path5461"
     style="fill:#008000;stroke-width:0.32867" /></svg>