<?xml version="1.0" encoding="UTF-8" standalone="no"?>
<!-- Created with Inkscape (http://www.inkscape.org/) -->

<svg
   xmlns:dc="http://purl.org/dc/elements/1.1/"
   xmlns:cc="http://creativecommons.org/ns#"
   xmlns:rdf="http://www.w3.org/1999/02/22-rdf-syntax-ns#"
   xmlns:svg="http://www.w3.org/2000/svg"
   xmlns="http://www.w3.org/2000/svg"
   xmlns:sodipodi="http://sodipodi.sourceforge.net/DTD/sodipodi-0.dtd"
   xmlns:inkscape="http://www.inkscape.org/namespaces/inkscape"
   width="20"
   height="13"
   viewBox="0 0 5.2916 3.4396"
   version="1.1"
   id="svg6777"
   inkscape:version="0.92.1 r15371"
   sodipodi:docname="twitter.svg">
  <defs
     id="defs6771" />
  <sodipodi:namedview
     id="base"
     pagecolor="#ffffff"
     bordercolor="#666666"
     borderopacity="1.0"
     inkscape:pageopacity="0.0"
     inkscape:pageshadow="2"
     inkscape:zoom="20.382"
     inkscape:cx="8.5475"
     inkscape:cy="8.1021"
     inkscape:document-units="mm"
     inkscape:current-layer="layer1"
     showgrid="false"
     units="px"
     inkscape:window-width="1280"
     inkscape:window-height="740"
     inkscape:window-x="0"
     inkscape:window-y="31"
     inkscape:window-maximized="1" />
  <metadata
     id="metadata6774">
    <rdf:RDF>
      <cc:Work
         rdf:about="">
        <dc:format>image/svg+xml</dc:format>
        <dc:type
           rdf:resource="http://purl.org/dc/dcmitype/StillImage" />
        <dc:title></dc:title>
      </cc:Work>
    </rdf:RDF>
  </metadata>
  <g
     inkscape:label="Layer 1"
     inkscape:groupmode="layer"
     id="layer1"
     transform="translate(0,-293.57)">
    <path
       id="path6698"
       d="M 4.991,294.04 C 5.0707,294.02 5.1451,293.99 5.2193,293.96 5.2353,293.95 5.2513,293.95 5.2672,293.96 5.2971,293.98 5.2971,294.01 5.2805,294.03 5.2221,294.11 5.1556,294.19 5.0814,294.27 5.0149,294.34 4.9406,294.4 4.8636,294.46 V 294.54 C 4.8663,294.55 4.8663,294.55 4.8663,294.55 4.8663,295.16 4.6114,295.83 4.1281,296.31 3.7166,296.72 3.135,297 2.4048,297 2.1659,297 1.935,296.97 1.7146,296.9 1.4889,296.84 1.2765,296.74 1.0827,296.61 1.0583,296.61 1.0583,296.59 1.0583,296.57 1.0583,296.55 1.0827,296.53 1.1092,296.53 V 296.53 C 1.1411,296.53 1.1729,296.54 1.2074,296.54 1.2366,296.54 1.2711,296.54 1.3057,296.54 1.4968,296.54 1.6801,296.51 1.85,296.45 1.988,296.4 2.1181,296.34 2.2375,296.26 2.0915,296.24 1.9561,296.18 1.842,296.09 1.6959,295.98 1.5844,295.83 1.526,295.65 1.5234,295.65 1.5207,295.64 1.5234,295.63 1.5286,295.6 1.5499,295.59 1.5765,295.59 V 295.59 C 1.6004,295.6 1.6269,295.6 1.6509,295.6 1.6748,295.61 1.7012,295.61 1.7278,295.61 1.7358,295.61 1.7464,295.61 1.7543,295.61 1.6269,295.55 1.5154,295.46 1.4278,295.36 1.3003,295.2 1.226,295.01 1.226,294.79 V 294.78 C 1.226,294.78 1.226,294.77 1.2313,294.76 1.2419,294.74 1.2711,294.73 1.2924,294.74 V 294.74 C 1.3481,294.77 1.4065,294.8 1.4702,294.82 1.4809,294.82 1.4915,294.82 1.5048,294.83 1.4384,294.76 1.38,294.69 1.3375,294.6 1.2685,294.48 1.2313,294.34 1.2313,294.19 1.2313,294.11 1.2419,294.03 1.2632,293.95 1.2818,293.88 1.3136,293.81 1.3508,293.74 1.3534,293.73 1.3588,293.73 1.3641,293.73 1.3826,293.71 1.4118,293.71 1.4278,293.73 L 1.3907,293.76 1.4252,293.73 C 1.6349,293.99 1.8977,294.2 2.1951,294.35 2.4659,294.49 2.766,294.57 3.0872,294.59 3.0846,294.58 3.0819,294.57 3.0819,294.55 3.0766,294.52 3.0739,294.49 3.0739,294.45 3.0739,294.21 3.1748,293.98 3.3368,293.82 3.4987,293.66 3.7219,293.56 3.9689,293.56 4.0936,293.56 4.2157,293.59 4.3246,293.63 4.4282,293.68 4.5237,293.74 4.6034,293.82 4.6884,293.81 4.7707,293.78 4.8504,293.75 4.938,293.72 5.023,293.68 5.1025,293.63 5.1132,293.62 5.1291,293.62 5.1424,293.62 5.1663,293.63 5.1796,293.66 5.1716,293.68 V 293.68 C 5.1371,293.78 5.0867,293.88 5.0176,293.96 4.991,294 4.9618,294.03 4.93,294.06 4.9512,294.05 4.9698,294.05 4.991,294.04 Z"
       class="fil0"
       inkscape:connector-curvature="0"
       style="clip-rule:evenodd;fill:#5ea9dd;fill-rule:nonzero;stroke-width:0.0028;image-rendering:optimizeQuality;shape-rendering:geometricPrecision;text-rendering:geometricPrecision" />
  </g>
</svg>
